<?xml version="1.0" encoding="utf-8"?>
<!-- Generator: Adobe Illustrator 24.0.2, SVG Export Plug-In . SVG Version: 6.00 Build 0)  -->
<svg version="1.1" id="Layer_1" xmlns="http://www.w3.org/2000/svg" xmlns:xlink="http://www.w3.org/1999/xlink" x="0px" y="0px"
	 viewBox="0 0 512 512" style="enable-background:new 0 0 512 512;" xml:space="preserve">
<style type="text/css">
	.st0{fill:#C1E8F7;}
	.st1{fill:#833F96;}
	.st2{fill:#F4CCAF;}
	.st3{fill:#FCD4B5;}
	.st4{fill:#B9D4F3;}
	.st5{fill:#93AFCA;}
</style>
<circle id="XMLID_8243_" class="st0" cx="256.0887" cy="255.7101" r="251.1834"/>
<g id="XMLID_7539_">
	<path id="XMLID_7550_" class="st1" d="M167.2591,340.8478l14.006-4.5686l0.0007,0.0052c5.5636-1.8292,9.8517-3.2702,11.794-4.0214
		c0.8072-0.3119,1.4078-0.2775,1.9296-0.093c0.7952-0.4927,1.6252-0.9995,2.4955-1.5214
		c21.9494-13.1645,23.975-34.6036,24.0389-46.9146c-2.1377-1.7219-4.21-3.5219-6.183-5.4277
		c-15.1046-14.5835-14.975-51.4328-18.6206-48.8282c-8.3333,5.5991-13.6717-11.0672-14.7135-20.9633
		c-0.8053-7.6494,1.7148-11.8224,4.8218-11.4209c1.2902,1.4205,3.0584,0.474,4.9526,4.222
		c1.5314,3.0296,3.0084-11.8202,16.8108-23.2795l16.6177-14.5032c13.8025,1.5632,18.8294,5.468,43.0647,18.2093
		c20.3788,10.7134,46.2991,19.34,49.9548,22.2856c1.6158,1.3021,2.8645-4.8166,9.0677-6.6241
		c0.0665-0.0183,0.1341-0.1752,0.2013-0.279c2.7114,0.3829,4.7441,4.4263,4.0109,11.3899
		c-1.0414,9.8961-6.3798,26.5624-14.7135,20.9633c-3.646-2.6046-3.516,34.2447-18.6202,48.8282
		c-1.0844,1.0466-2.1915,2.0701-3.3232,3.0659c-0.889,0.7803-1.8419,1.4863-2.763,2.2303
		c0.0512,12.2912,2.0163,33.8361,24.0411,47.0461c0.8718,0.5218,1.7044,1.0235,2.5037,1.5031
		c0.5218-0.1662,1.1176-0.1916,1.9027,0.1113c4.6967,1.8183,22.9684,7.5067,40.273,13.1298
		c0.7474-5.6851-0.8027-11.636-6.2476-17.4578c-26.0365-27.8484,3.2257-23.8999,1.9894-54.4202
		c-0.7859-19.4147-21.6185-26.7066-15.0104-47.4857c10.5125-33.0569-5.2831-90.8657-30.1875-100.5852
		c-58.9571-39.7269-115.9326-18.4297-135.7182,35.2954c-20.7145,56.2438,14.9115,63.8566-10.8916,89.6585
		c-8.4977,8.4992-11.5034,21.9281-8.1066,30.5823c6.5998,16.8086,22.5328,33.938,11.3619,44.5439
		c-7.178,6.8157-12.8545,13.064-14.449,19.836c4.6119-1.5266,9.2664-3.0495,13.7098-4.4995L167.2591,340.8478z"/>
	<path id="XMLID_7549_" class="st2" d="M292.0894,283.6026c-2.7181,2.196-5.5308,4.2754-8.5466,6.0425
		c-3.4435,2.0155-7.0891,3.6897-10.8901,4.9115c-3.454,1.1109-7.0237,1.8404-10.6327,2.2053
		c-4.4823,0.4542-9.086,0.3152-13.5384-0.3904c-3.6553-0.5801-7.2438-1.5576-10.6891-2.9109
		c-3.866-1.5176-7.5388-3.4999-10.9924-5.8035c-1.8247-1.2166-3.5672-2.5497-5.276-3.9231
		c-0.0639,12.311-2.0895,33.7502-24.0389,46.9146c-0.8703,0.5218-1.7003,1.0287-2.4955,1.5214
		c5.5076,1.9349-2.7686,29.9802,18.677,54.5584c9.4786,10.8628,28.0928,15.3459,43.4457,15.2473
		c15.3526-0.1001,34.3575-5.2872,42.8189-15.2473c20.9304-24.6403,13.0285-52.7693,18.7031-54.5767
		c-0.7993-0.4796-1.6319-0.9813-2.5037-1.5031C294.1057,317.4387,292.1406,295.8938,292.0894,283.6026z"/>
	<path id="XMLID_7548_" class="st3" d="M237.7924,293.4607c3.4454,1.3533,7.0338,2.3308,10.6891,2.9109
		c4.4524,0.7056,9.0561,0.8445,13.5384,0.3904c3.609-0.3649,7.1787-1.0944,10.6327-2.2053
		c3.801-1.2218,7.4466-2.8959,10.8901-4.9115c3.0158-1.7672,5.8285-3.8466,8.5466-6.0425c0.9211-0.744,1.874-1.45,2.763-2.2303
		c1.1318-0.9958,2.2389-2.0193,3.3232-3.0659c15.1042-14.5835,14.9742-51.4328,18.6202-48.8282
		c8.3337,5.5991,13.6721-11.0672,14.7135-20.9633c0.7332-6.9636-1.2995-11.007-4.0109-11.3899
		c-0.0672,0.1038-0.1348,0.2607-0.2013,0.279c-6.2031,1.8075-7.4518,7.9262-9.0677,6.6241
		c-3.6557-2.9456-29.576-11.5722-49.9548-22.2856c-24.2354-12.7413-29.2622-16.6461-43.0647-18.2093l-16.6177,14.5032
		c-13.8025,11.4594-15.2794,26.3092-16.8108,23.2795c-1.8941-3.7479-3.6624-2.8014-4.9526-4.222
		c-3.107-0.4015-5.6271,3.7715-4.8218,11.4209c1.0418,9.8961,6.3802,26.5624,14.7135,20.9633
		c3.6456-2.6046,3.516,34.2447,18.6206,48.8282c1.973,1.9057,4.0453,3.7057,6.183,5.4277c1.7089,1.3735,3.4514,2.7066,5.276,3.9231
		C230.2536,289.9607,233.9265,291.943,237.7924,293.4607z"/>
	<path id="XMLID_7547_" class="st4" d="M170.4778,445.8324l14.6668,0.0799l-14.6668-0.1038c0,0-1.0743-75.3342-3.2175-104.948
		c-4.4434,1.45-9.0979,2.9729-13.7098,4.4995c-17.3707,5.747-33.9952,11.4885-35.2491,13.1574
		c-0.0019,0.0019,0.0022,0.0164,0.0007,0.0198c0.5364-0.2114,1.0757-0.3444,1.6207-0.3444
		c17.1067-0.0019,33.0427,93.3388,34.1263,111.7308c0.2413,4.0815,0.8759,9.1648,1.2607,15.694
		c5.263,2.3199,10.6014,4.4924,16.0462,6.4545C170.8531,466.9779,169.4151,447.2491,170.4778,445.8324z"/>
	<path id="XMLID_7544_" class="st4" d="M393.0377,358.1928c0.7358-0.2921,1.4653-0.2757,2.1911-0.0878
		c-0.0026-0.0089,0.0056-0.0381,0.0011-0.0437c-1.2349-1.6431-17.3566-7.1238-34.4199-12.6684
		c-17.3046-5.623-35.5763-11.3114-40.273-13.1298c-0.7852-0.3029-1.3809-0.2775-1.9027-0.1113
		c-5.6746,1.8075,2.2273,29.9365-18.7031,54.5767c-8.4614,9.96-27.4663,15.1472-42.8189,15.2473
		c-15.353,0.0986-33.9672-4.3844-43.4457-15.2473c-21.4455-24.5782-13.1693-52.6236-18.677-54.5584
		c-0.5218-0.1845-1.1224-0.2189-1.9296,0.093c-1.9423,0.7512-6.2304,2.1922-11.794,4.0214
		c2.9374,14.7258,3.9067,109.6278,3.9067,109.6278l71.3073,0.3959l86.0021-0.4759c1.0645,1.4168-0.3743,21.1437-0.877,46.2397
		c5.5464-1.9987,10.9831-4.2182,16.3402-6.5875c0.2405-6.5169,0.7231-11.4485,0.9648-15.561
		C359.9931,451.5316,374.512,365.5557,393.0377,358.1928z M342.4124,445.8085l-14.6948,0.1038c0,0,1.0067-95.1426,3.9448-109.8538
		l13.9687,4.5596C343.4878,370.221,342.4124,445.8085,342.4124,445.8085z"/>
	<path id="XMLID_7543_" d="M342.4819,445.8324l-86.0021,0.4759l-71.3073-0.3959c0,0-0.9693-94.902-3.9067-109.6278l-0.0007-0.0052
		l-14.006,4.5686l0.0011,0.0127c2.1433,29.6137,3.2175,104.948,3.2175,104.948l14.6668,0.1038l-14.6668-0.0799
		c-1.0627,1.4168,0.3754,21.1456,0.8781,46.2397c26.5856,9.5753,55.239,14.8207,85.1247,14.8207
		c29.8849,0,58.5391-5.2454,85.1243-14.8207C342.1076,466.9761,343.5464,447.2491,342.4819,445.8324z"/>
	<path id="XMLID_7542_" class="st5" d="M419.416,446.7987c-6.3208-45.3918-14.8379-86.2714-24.1872-88.6937
		c-0.7258-0.1879-1.4553-0.2043-2.1911,0.0878c-18.5257,7.3629-33.0446,93.3388-34.1278,111.7308
		c-0.2417,4.1125-0.7243,9.0442-0.9648,15.561C380.3509,475.5753,401.0244,462.4949,419.416,446.7987z"/>
	<path id="XMLID_7541_" class="st5" d="M119.9228,358.1928c-0.545,0-1.0843,0.133-1.6207,0.3444
		c-10.053,3.9325-18.6441,43.8472-24.8928,88.1431c18.5066,15.8184,39.3258,28.9881,61.9004,38.9373
		c-0.3847-6.5292-1.0193-11.6125-1.2607-15.694C152.9655,451.5316,137.0294,358.1909,119.9228,358.1928z"/>
	<path id="XMLID_7540_" d="M345.6311,340.6181l-13.9687-4.5596c-2.9381,14.7112-3.9448,109.8538-3.9448,109.8538l14.6948-0.1038
		C342.4124,445.8085,343.4878,370.221,345.6311,340.6181z"/>
</g>
</svg>
