<?xml version="1.0" encoding="UTF-8" standalone="no"?> <svg width="512" height="512" viewBox="0 0 512 512" fill="none" xmlns="http://www.w3.org/2000/svg">
<path d="M32 96H480V416H32V96Z" fill="#E92B2B"/>
<path d="M103.994 144L114.771 177.167H149.645L121.431 197.666L132.208 230.833L103.994 210.334L75.7808 230.833L86.5574 197.666L58.3438 177.167H93.2178L103.994 144Z" fill="#FFE70E"/>
<path d="M183.998 120L187.59 131.056H199.215L189.81 137.889L193.403 148.944L183.998 142.111L174.594 148.944L178.186 137.889L168.781 131.056H180.406L183.998 120Z" fill="#FFE70E"/>
<path d="M183.998 232L187.59 243.056H199.215L189.81 249.889L193.403 260.944L183.998 254.111L174.594 260.944L178.186 249.889L168.781 243.056H180.406L183.998 232Z" fill="#FFE70E"/>
<path d="M215.998 152L219.59 163.056H231.215L221.81 169.889L225.403 180.944L215.998 174.111L206.594 180.944L210.186 169.889L200.781 163.056H212.406L215.998 152Z" fill="#FFE70E"/>
<path d="M215.998 200L219.59 211.056H231.215L221.81 217.889L225.403 228.944L215.998 222.111L206.594 228.944L210.186 217.889L200.781 211.056H212.406L215.998 200Z" fill="#FFE70E"/>
</svg>
