<?xml version="1.0" encoding="UTF-8" standalone="no"?> <svg width="512" height="512" viewBox="0 0 512 512" fill="none" xmlns="http://www.w3.org/2000/svg">
<path d="M480 96H32V416H480V96Z" fill="#E92B2B"/>
<path d="M360 96H152V416H360V96Z" fill="#FBFBFB"/>
<path fill-rule="evenodd" clip-rule="evenodd" d="M242.928 335.999C242.044 335.999 241.328 335.283 241.328 334.399V307.969C241.328 307.086 240.611 306.369 239.728 306.369H203.82C202.576 306.369 201.808 305.013 202.447 303.946L216.621 280.312C217.095 279.522 216.805 278.497 215.989 278.071L171.923 255.085C170.595 254.392 170.862 252.418 172.326 252.102L193.975 247.437C194.821 247.255 195.369 246.433 195.211 245.581L190.69 221.229C190.431 219.835 191.981 218.818 193.157 219.61L230.011 244.428C231.287 245.287 232.921 244.027 232.416 242.575L218.489 202.56C218.067 201.347 219.175 200.155 220.416 200.49L238.288 205.304C238.997 205.495 239.745 205.179 240.102 204.537L254.597 178.509C255.207 177.414 256.782 177.414 257.392 178.509L271.887 204.537C272.244 205.179 272.992 205.495 273.701 205.304L291.572 200.49C292.813 200.155 293.922 201.347 293.5 202.56L279.573 242.575C279.067 244.027 280.702 245.287 281.978 244.428L318.832 219.61C320.008 218.818 321.557 219.835 321.298 221.229L316.778 245.581C316.62 246.433 317.168 247.255 318.014 247.437L339.663 252.102C341.127 252.418 341.394 254.392 340.066 255.085L296 278.071C295.183 278.497 294.894 279.522 295.368 280.312L309.541 303.946C310.181 305.013 309.413 306.369 308.169 306.369H272.261C271.377 306.369 270.661 307.086 270.661 307.969V334.399C270.661 335.283 269.945 335.999 269.061 335.999H242.928Z" fill="#E92B2B"/>
</svg>
